<?xml version="1.0" encoding="UTF-8" standalone="no"?>
<!DOCTYPE svg PUBLIC "-//W3C//DTD SVG 1.1//EN" "http://www.w3.org/Graphics/SVG/1.1/DTD/svg11.dtd">
<svg width="100%" height="100%" viewBox="0 0 1000 1000" version="1.1" xmlns="http://www.w3.org/2000/svg" xmlns:xlink="http://www.w3.org/1999/xlink" xml:space="preserve" xmlns:serif="http://www.serif.com/" style="fill-rule:evenodd;clip-rule:evenodd;stroke-linecap:round;stroke-linejoin:round;stroke-miterlimit:1.5;">
    <g transform="matrix(1.17374,0,0,1.17374,-195.806,-81.9532)">
        <path d="M592.954,77.49C614.503,77.49 920.675,224.935 934.111,241.782C947.546,258.63 1023.17,589.935 1018.37,610.944C1013.57,631.953 801.697,897.639 782.282,906.989C762.867,916.338 423.041,916.338 403.626,906.989C384.211,897.639 172.334,631.953 167.539,610.944C162.744,589.935 238.362,258.63 251.797,241.782C265.233,224.935 571.405,77.49 592.954,77.49Z" style="fill:rgb(48,104,219);"/>
    </g>
    <g transform="matrix(0.751079,0,0,0.751079,124.708,114.063)">
        <g transform="matrix(4.83554,0,0,4.9047,-236.192,-698.736)">
            <path d="M96,271C96.048,265.605 94.405,218.141 112,218C128.856,217.865 113.807,256.898 131,257C148.272,257.102 136.887,217.916 153,218C168.109,218.079 155.774,257.193 172,257C187.517,256.815 177.505,217.812 194,218C211.085,218.194 208.116,262.893 208,271" style="fill:none;stroke:white;stroke-width:8.2px;"/>
        </g>
        <g transform="matrix(8.53514,0,0,8.877,-181.773,-195.124)">
            <path d="M55,93.75C55,93.336 54.65,93 54.22,93L41.78,93C41.35,93 41,93.336 41,93.75L41,95.25C41,95.664 41.35,96 41.78,96L54.22,96C54.65,96 55,95.664 55,95.25L55,93.75Z" style="fill:white;stroke:white;stroke-width:0.76px;"/>
        </g>
        <g transform="matrix(8.53514,0,0,8.877,361.206,-195.124)">
            <path d="M55,93.75C55,93.336 54.65,93 54.22,93L41.78,93C41.35,93 41,93.336 41,93.75L41,95.25C41,95.664 41.35,96 41.78,96L54.22,96C54.65,96 55,95.664 55,95.25L55,93.75Z" style="fill:white;stroke:white;stroke-width:0.76px;"/>
        </g>
    </g>
</svg>
