<?xml version="1.0" encoding="UTF-8" standalone="no"?>
<!DOCTYPE svg PUBLIC "-//W3C//DTD SVG 1.1//EN" "http://www.w3.org/Graphics/SVG/1.1/DTD/svg11.dtd">
<svg width="100%" height="100%" viewBox="0 0 1000 1000" version="1.1" xmlns="http://www.w3.org/2000/svg" xmlns:xlink="http://www.w3.org/1999/xlink" xml:space="preserve" xmlns:serif="http://www.serif.com/" style="fill-rule:evenodd;clip-rule:evenodd;stroke-linecap:round;stroke-linejoin:round;stroke-miterlimit:1.5;">
    <g transform="matrix(0.751079,0,0,0.751079,124.708,114.063)">
        <g transform="matrix(4.83554,0,0,4.9047,-236.192,-698.736)">
            <path d="M96,271C96.048,265.605 94.405,218.141 112,218C128.856,217.865 113.807,256.898 131,257C148.272,257.102 136.887,217.916 153,218C168.109,218.079 155.774,257.193 172,257C187.517,256.815 177.505,217.812 194,218C211.085,218.194 208.116,262.893 208,271" style="fill:none;stroke:rgb(39,122,159);stroke-width:8.2px;"/>
        </g>
        <g transform="matrix(8.53514,0,0,8.877,-181.773,-195.124)">
            <path d="M55,93.75C55,93.336 54.65,93 54.22,93L41.78,93C41.35,93 41,93.336 41,93.75L41,95.25C41,95.664 41.35,96 41.78,96L54.22,96C54.65,96 55,95.664 55,95.25L55,93.75Z" style="fill:rgb(39,122,159);stroke:rgb(39,122,159);stroke-width:0.76px;"/>
        </g>
        <g transform="matrix(8.53514,0,0,8.877,361.206,-195.124)">
            <path d="M55,93.75C55,93.336 54.65,93 54.22,93L41.78,93C41.35,93 41,93.336 41,93.75L41,95.25C41,95.664 41.35,96 41.78,96L54.22,96C54.65,96 55,95.664 55,95.25L55,93.75Z" style="fill:rgb(39,122,159);stroke:rgb(39,122,159);stroke-width:0.76px;"/>
        </g>
    </g>
    <g>
        <g transform="matrix(1,0,0,1,-3.7493,-1.5261)">
            <path d="M464.188,173.016C461.718,152.295 462.292,129.946 462.292,114.424C462.292,76.824 489.847,1.624 503.625,1.624C517.402,1.624 544.957,76.824 544.957,114.424C544.957,129.467 545.566,152.009 543.406,173.05C589.675,177.939 634.33,191.295 675.251,212.131C686.977,192.935 703.657,174.126 714.565,161.126C738.734,132.322 808.18,92.428 818.734,101.284C829.288,110.14 802.059,185.458 777.89,214.261C768.823,225.067 755.928,241.267 741.842,255.388C760.444,270.471 777.718,287.407 793.37,306.06L749.857,342.571C690.586,271.934 603.931,230.259 512.02,227.866C510.494,227.969 508.898,227.942 507.229,227.776C506.032,227.763 504.834,227.756 503.635,227.756C408.626,227.756 318.484,269.79 257.413,342.571L213.901,306.06C229.525,287.439 246.767,270.529 265.334,255.466C251.217,241.327 238.291,225.087 229.208,214.261C205.039,185.458 177.81,110.14 188.364,101.284C198.918,92.428 268.364,132.322 292.533,161.126C303.454,174.141 320.16,192.979 331.888,212.198C372.94,191.276 417.754,177.882 464.188,173.016Z" style="fill:rgb(39,122,159);"/>
        </g>
        <g transform="matrix(1,0,0,-1,-3.7493,1001.42)">
            <path d="M464.188,173.016C461.718,152.295 462.292,129.946 462.292,114.424C462.292,76.824 489.847,1.624 503.625,1.624C517.402,1.624 544.957,76.824 544.957,114.424C544.957,129.467 545.566,152.009 543.406,173.05C589.675,177.939 634.33,191.295 675.251,212.131C686.977,192.935 703.657,174.126 714.565,161.126C738.734,132.322 808.18,92.428 818.734,101.284C829.288,110.14 802.059,185.458 777.89,214.261C768.823,225.067 755.928,241.267 741.842,255.388C760.444,270.471 777.718,287.407 793.37,306.06L749.857,342.571C690.586,271.934 603.931,230.259 512.02,227.866C510.494,227.969 508.898,227.942 507.229,227.776C506.032,227.763 504.834,227.756 503.635,227.756C408.626,227.756 318.484,269.79 257.413,342.571L213.901,306.06C229.525,287.439 246.767,270.529 265.334,255.466C251.217,241.327 238.291,225.087 229.208,214.261C205.039,185.458 177.81,110.14 188.364,101.284C198.918,92.428 268.364,132.322 292.533,161.126C303.454,174.141 320.16,192.979 331.888,212.198C372.94,191.276 417.754,177.882 464.188,173.016Z" style="fill:rgb(39,122,159);"/>
        </g>
    </g>
</svg>
