<?xml version="1.0" encoding="UTF-8" standalone="no"?>
<!DOCTYPE svg PUBLIC "-//W3C//DTD SVG 1.1//EN" "http://www.w3.org/Graphics/SVG/1.1/DTD/svg11.dtd">
<svg width="100%" height="100%" viewBox="0 0 1000 1000" version="1.1" xmlns="http://www.w3.org/2000/svg" xmlns:xlink="http://www.w3.org/1999/xlink" xml:space="preserve" xmlns:serif="http://www.serif.com/" style="fill-rule:evenodd;clip-rule:evenodd;stroke-linecap:round;stroke-linejoin:round;stroke-miterlimit:1.5;">
    <g transform="matrix(0.856264,0,0,0.856264,-47.0283,-44.9689)">
        <circle cx="638.844" cy="636.444" r="583.932"/>
    </g>
    <g transform="matrix(0.777486,0.448882,-0.448882,0.777486,321.608,-133.752)">
        <path d="M525.488,383.312L636.477,447.391L636.477,575.55L525.488,639.629L414.5,575.55L414.5,447.391L525.488,383.312Z" style="fill:rgb(90,204,235);"/>
    </g>
    <g transform="matrix(1.99062,0,0,1.99062,260.404,-31.6003)">
        <path d="M120.358,159.975C160.077,111.663 198.514,85.365 218.559,96.938C238.604,108.511 235.048,154.947 213.068,213.501C274.767,223.743 316.76,243.881 316.76,267.027C316.76,290.174 274.767,310.312 213.068,320.553C235.048,379.107 238.604,425.543 218.559,437.116C198.514,448.69 160.077,422.392 120.358,374.079C80.639,422.392 42.202,448.69 22.157,437.116C2.112,425.543 5.668,379.107 27.648,320.553C-34.051,310.312 -76.044,290.174 -76.044,267.027C-76.044,243.881 -34.051,223.743 27.648,213.501C5.668,154.947 2.112,108.511 22.157,96.938C42.202,85.365 80.639,111.663 120.358,159.975ZM40.152,322.455C20.367,373.708 12.264,418.792 27.618,427.657C42.973,436.522 77.966,406.963 112.46,364.201C103.532,352.73 94.596,340.204 85.846,326.803C69.866,325.926 54.551,324.451 40.152,322.455ZM200.519,322.461C186.134,324.454 170.834,325.927 154.87,326.803C146.129,340.191 137.203,352.704 128.284,364.166C162.567,406.542 197.239,435.59 212.568,426.74C227.897,417.89 220.077,373.338 200.519,322.461ZM139.707,327.448C133.342,327.641 126.887,327.74 120.358,327.74C113.832,327.74 107.38,327.641 101.016,327.448C107.304,336.654 113.804,345.611 120.376,354.144C126.942,345.599 133.433,336.642 139.707,327.448ZM148.019,219.121C138.763,218.658 129.5,218.416 120.358,218.416C111.228,218.416 101.965,218.657 92.701,219.12C87.671,226.904 82.83,234.804 78.259,242.722C73.694,250.629 69.271,258.772 65.039,267.027C69.271,275.283 73.694,283.425 78.259,291.333C82.83,299.251 87.671,307.151 92.701,314.935C101.965,315.398 111.228,315.639 120.358,315.639C129.5,315.639 138.763,315.397 148.019,314.933C153.052,307.141 157.892,299.24 162.457,291.333C167.028,283.416 171.449,275.274 175.675,267.027C171.449,258.78 167.028,250.639 162.457,242.722C157.892,234.814 153.052,226.914 148.019,219.121ZM58.358,280.481C53.529,290.521 49.013,300.63 44.893,310.597C55.584,312.013 66.597,313.157 77.707,313.995C74.357,308.578 71.044,303.038 67.78,297.383C64.515,291.729 61.373,286.09 58.358,280.481ZM182.355,280.487C179.34,286.094 176.2,291.732 172.936,297.383C169.673,303.035 166.362,308.574 163.013,313.989C174.12,313.147 185.117,311.997 195.784,310.574C191.683,300.626 187.179,290.527 182.355,280.487ZM32.254,225.281C-22.026,233.773 -65.121,249.298 -65.121,267.027C-65.121,284.757 -22.026,300.282 32.254,308.774C37.724,295.307 44.104,281.305 51.335,267.027C44.104,252.749 37.724,238.748 32.254,225.281ZM208.446,225.323C202.979,238.777 196.605,252.764 189.381,267.027C196.605,281.291 202.979,295.278 208.446,308.732C262.286,300.231 304.778,284.728 304.778,267.027C304.778,249.327 262.286,233.824 208.446,225.323ZM77.707,220.06C66.598,220.898 55.585,222.042 44.893,223.457C49.013,233.425 53.529,243.534 58.358,253.574C61.373,247.965 64.515,242.325 67.78,236.671C71.044,231.017 74.357,225.477 77.707,220.06ZM163.013,220.066C166.362,225.481 169.673,231.019 172.936,236.671C176.2,242.323 179.34,247.96 182.355,253.568C187.179,243.528 191.683,233.429 195.784,223.48C185.117,222.058 174.12,220.908 163.013,220.066ZM112.46,169.853C77.966,127.092 42.973,97.533 27.618,106.398C12.264,115.262 20.367,160.347 40.152,211.6C54.551,209.604 69.866,208.128 85.846,207.251C94.596,193.85 103.531,181.325 112.46,169.853ZM200.519,211.594C220.077,160.716 227.897,116.165 212.568,107.315C197.239,98.465 162.567,127.513 128.284,169.889C137.203,181.351 146.129,193.864 154.87,207.251C170.834,208.128 186.134,209.601 200.519,211.594ZM120.376,179.91C113.804,188.443 107.304,197.4 101.016,206.607C107.38,206.414 113.832,206.315 120.358,206.315C126.887,206.315 133.342,206.414 139.707,206.607C133.433,197.413 126.942,188.455 120.376,179.91Z" style="fill:rgb(90,204,235);"/>
    </g>
    <g transform="matrix(0.289812,0,0,0.289812,355.258,350.893)">
        <g transform="matrix(4.83554,0,0,4.9047,-236.192,-698.736)">
            <path d="M96,271C96.048,265.605 94.405,218.141 112,218C128.856,217.865 113.807,256.898 131,257C148.272,257.102 136.887,217.916 153,218C168.109,218.079 155.774,257.193 172,257C187.517,256.815 177.505,217.812 194,218C211.085,218.194 208.116,262.893 208,271" style="fill:none;stroke:black;stroke-width:5.31px;"/>
        </g>
        <g transform="matrix(8.53514,0,0,8.877,-181.773,-195.124)">
            <path d="M55,93.75C55,93.336 54.65,93 54.22,93L41.78,93C41.35,93 41,93.336 41,93.75L41,95.25C41,95.664 41.35,96 41.78,96L54.22,96C54.65,96 55,95.664 55,95.25L55,93.75Z"/>
        </g>
        <g transform="matrix(8.53514,0,0,8.877,361.206,-195.124)">
            <path d="M55,93.75C55,93.336 54.65,93 54.22,93L41.78,93C41.35,93 41,93.336 41,93.75L41,95.25C41,95.664 41.35,96 41.78,96L54.22,96C54.65,96 55,95.664 55,95.25L55,93.75Z"/>
        </g>
    </g>
</svg>
