<?xml version="1.0" encoding="UTF-8" standalone="no"?>
<!DOCTYPE svg PUBLIC "-//W3C//DTD SVG 1.1//EN" "http://www.w3.org/Graphics/SVG/1.1/DTD/svg11.dtd">
<svg width="100%" height="100%" viewBox="0 0 500 500" version="1.1" xmlns="http://www.w3.org/2000/svg" xmlns:xlink="http://www.w3.org/1999/xlink" xml:space="preserve" xmlns:serif="http://www.serif.com/" style="fill-rule:evenodd;clip-rule:evenodd;stroke-linejoin:round;stroke-miterlimit:1.41421;">
    <g transform="matrix(1.37355,0,0,1.37355,-100.269,-118.246)">
        <circle cx="255" cy="271" r="182" style="fill:rgb(210,225,245);"/>
        <g transform="matrix(1.0849,0,0,1.0849,-19.0469,31.9997)">
            <g transform="matrix(0.166471,0,0,0.166471,103.359,244.481)">
                <path d="M203,72L203,145L130,145L203,72Z" style="fill:rgb(151,191,255);"/>
            </g>
            <g transform="matrix(0.166471,0,0,0.166471,115.511,244.481)">
                <path d="M203,72L203,145L130,145L203,72Z" style="fill:rgb(90,154,254);"/>
            </g>
            <g transform="matrix(0.166471,0,0,0.166471,127.664,244.481)">
                <path d="M203,72L203,145L130,145L203,72Z" style="fill:rgb(27,116,255);"/>
            </g>
            <g transform="matrix(0.166471,0,0,0.166471,127.664,232.328)">
                <path d="M203,72L203,145L130,145L203,72Z" style="fill:rgb(183,211,255);"/>
            </g>
            <g transform="matrix(0.166471,0,0,0.166471,127.664,220.176)">
                <path d="M203,72L203,145L130,145L203,72Z" style="fill:rgb(123,174,255);"/>
            </g>
            <g transform="matrix(7.9551e-18,-0.166471,0.166471,7.9551e-18,331.757,254.376)">
                <path d="M203,72L203,145L130,145L203,72Z" style="fill:rgb(255,81,81);"/>
            </g>
            <g transform="matrix(7.9551e-18,-0.166471,0.166471,7.9551e-18,331.757,266.529)">
                <path d="M203,72L203,145L130,145L203,72Z" style="fill:rgb(250,34,35);"/>
            </g>
            <g transform="matrix(7.9551e-18,-0.166471,0.166471,7.9551e-18,331.757,278.681)">
                <path d="M203,72L203,145L130,145L203,72Z" style="fill:rgb(165,0,1);"/>
            </g>
            <g transform="matrix(7.9551e-18,-0.166471,0.166471,7.9551e-18,331.757,290.833)">
                <path d="M203,72L203,145L130,145L203,72Z" style="fill:rgb(255,120,120);"/>
            </g>
            <g transform="matrix(7.9551e-18,-0.166471,0.166471,7.9551e-18,319.605,290.833)">
                <path d="M203,72L203,145L130,145L203,72Z" style="fill:rgb(255,167,167);"/>
            </g>
            <g transform="matrix(7.9551e-18,-0.166471,0.166471,7.9551e-18,307.452,290.833)">
                <path d="M203,72L203,145L130,145L203,72Z" style="fill:rgb(255,207,207);"/>
            </g>
            <g transform="matrix(7.9551e-18,-0.166471,0.166471,7.9551e-18,343.909,290.833)">
                <path d="M203,72L203,145L130,145L203,72Z" style="fill:rgb(255,81,81);"/>
            </g>
            <g transform="matrix(7.9551e-18,-0.166471,0.166471,7.9551e-18,356.062,290.833)">
                <path d="M203,72L203,145L130,145L203,72Z" style="fill:rgb(250,34,35);"/>
            </g>
            <g transform="matrix(0.166471,0,0,0.166471,127.664,208.024)">
                <path d="M203,72L203,145L130,145L203,72Z" style="fill:rgb(59,135,255);"/>
            </g>
            <g transform="matrix(0.166471,0,0,0.166471,127.664,195.871)">
                <path d="M203,72L203,145L130,145L203,72Z" style="fill:rgb(0,96,247);"/>
            </g>
            <g transform="matrix(0.166471,0,0,0.166471,127.664,183.719)">
                <path d="M203,72L203,145L130,145L203,72Z" style="fill:rgb(0,66,170);"/>
            </g>
            <g transform="matrix(1.04083e-17,-0.166471,0.166471,1.04083e-17,185.899,229.469)">
                <path d="M203,72L203,145L130,145L203,72Z" style="fill:rgb(255,167,167);"/>
            </g>
            <g transform="matrix(-6.59045e-17,-0.166886,0.166471,-6.19016e-17,185.899,241.706)">
                <path d="M203,72L203,145L130,145L203,72Z" style="fill:rgb(255,120,120);"/>
            </g>
            <g transform="matrix(6.71212e-18,-0.166471,0.166471,6.71212e-18,185.928,253.803)">
                <path d="M203,72L203,145L130,145L203,72Z" style="fill:rgb(255,81,81);"/>
            </g>
            <g transform="matrix(1.01934e-17,0.166471,-0.166471,1.01934e-17,234.205,198.37)">
                <path d="M203,72L203,145L130,145L203,72Z" style="fill:rgb(255,60,60);"/>
            </g>
            <g transform="matrix(0.166471,-1.59102e-17,1.59102e-17,0.166471,200.578,195.871)">
                <path d="M203,72L203,145L130,145L203,72Z" style="fill:rgb(0,96,247);"/>
            </g>
            <g transform="matrix(0.166471,4.99059e-19,-4.99059e-19,0.166471,200.578,183.719)">
                <path d="M203,72L203,145L130,145L203,72Z" style="fill:rgb(0,66,170);"/>
            </g>
            <g transform="matrix(0.166471,4.99059e-19,-4.99059e-19,0.166471,200.578,171.566)">
                <path d="M203,72L203,145L130,145L203,72Z" style="fill:rgb(0,26,67);"/>
            </g>
            <g transform="matrix(0.166471,4.99059e-19,-4.99059e-19,0.166471,212.73,159.414)">
                <path d="M203,72L203,145L130,145L203,72Z" style="fill:rgb(0,66,170);"/>
            </g>
            <g transform="matrix(0.166471,6.21586e-18,-6.21586e-18,0.166471,224.883,159.414)">
                <path d="M203,72L203,145L130,145L203,72Z" style="fill:rgb(0,96,247);"/>
            </g>
            <g transform="matrix(1.49158e-17,-0.166471,0.166471,1.49158e-17,258.843,229.498)">
                <path d="M203,72L203,145L130,145L203,72Z" style="fill:rgb(255,167,167);"/>
            </g>
            <g transform="matrix(1.49158e-17,-0.166471,0.166471,1.49158e-17,258.843,241.651)">
                <path d="M203,72L203,145L130,145L203,72Z" style="fill:rgb(255,120,120);"/>
            </g>
            <g transform="matrix(1.49158e-17,-0.166471,0.166471,1.49158e-17,258.843,253.803)">
                <path d="M203,72L203,145L130,145L203,72Z" style="fill:rgb(255,81,81);"/>
            </g>
            <g transform="matrix(1.49158e-17,-0.166471,0.166471,1.49158e-17,270.995,253.803)">
                <path d="M203,72L203,145L130,145L203,72Z" style="fill:rgb(255,37,38);"/>
            </g>
            <g transform="matrix(0.166471,4.72241e-18,-4.72241e-18,0.166471,273.492,195.871)">
                <path d="M203,72L203,145L130,145L203,72Z" style="fill:rgb(0,96,247);"/>
            </g>
            <g transform="matrix(0.166471,4.72241e-18,-4.72241e-18,0.166471,273.492,172.14)">
                <path d="M203,72L203,145L130,145L203,72Z" style="fill:rgb(0,26,67);"/>
            </g>
            <g transform="matrix(0.166471,4.72241e-18,-4.72241e-18,0.166471,285.644,159.987)">
                <path d="M203,72L203,145L130,145L203,72Z" style="fill:rgb(0,66,170);"/>
            </g>
            <g transform="matrix(0.166471,4.72241e-18,-4.72241e-18,0.166471,297.797,159.987)">
                <path d="M203,72L203,145L130,145L203,72Z" style="fill:rgb(0,96,247);"/>
            </g>
            <g transform="matrix(1.49158e-17,-0.166471,0.166471,1.49158e-17,319.605,217.919)">
                <path d="M203,72L203,145L130,145L203,72Z" style="fill:rgb(255,207,207);"/>
            </g>
            <g transform="matrix(1.49158e-17,-0.166471,0.166471,1.49158e-17,331.757,230.072)">
                <path d="M203,72L203,145L130,145L203,72Z" style="fill:rgb(255,167,167);"/>
            </g>
            <g transform="matrix(1.49158e-17,-0.166471,0.166471,1.49158e-17,331.757,242.224)">
                <path d="M203,72L203,145L130,145L203,72Z" style="fill:rgb(255,120,120);"/>
            </g>
            <g transform="matrix(0.166471,4.72241e-18,-4.72241e-18,0.166471,273.492,184.292)">
                <path d="M203,72L203,145L130,145L203,72Z" style="fill:rgb(0,66,170);"/>
            </g>
            <g transform="matrix(1.98878e-17,-0.166471,0.166471,1.98878e-17,246.69,217.346)">
                <path d="M203,72L203,145L130,145L203,72Z" style="fill:rgb(255,207,207);"/>
            </g>
            <g transform="matrix(0.166471,0,0,0.166471,127.664,171.566)">
                <path d="M203,72L203,145L130,145L203,72Z" style="fill:rgb(0,26,67);"/>
            </g>
            <g transform="matrix(0.166471,0,0,0.166471,139.816,159.414)">
                <path d="M203,72L203,145L130,145L203,72Z" style="fill:rgb(0,66,170);"/>
            </g>
            <g transform="matrix(0.166471,0,0,0.166471,151.968,159.414)">
                <path d="M203,72L203,145L130,145L203,72Z" style="fill:rgb(0,96,247);"/>
            </g>
            <g transform="matrix(7.9551e-18,-0.166471,0.166471,7.9551e-18,173.776,217.346)">
                <path d="M203,72L203,145L130,145L203,72Z" style="fill:rgb(255,207,207);"/>
            </g>
            <g transform="matrix(0.166471,0,0,0.166471,139.816,244.481)">
                <path d="M203,72L203,145L130,145L203,72Z" style="fill:rgb(0,83,215);"/>
            </g>
            <g transform="matrix(0.166471,0,0,0.166471,151.968,244.481)">
                <path d="M203,72L203,145L130,145L203,72Z" style="fill:rgb(0,47,122);"/>
            </g>
            <g transform="matrix(-0.166471,-2.07922e-17,2.07922e-17,-0.166471,158.794,280.605)">
                <path d="M203,72L203,145L130,145L203,72Z" style="fill:rgb(183,211,255);"/>
            </g>
            <g transform="matrix(-0.166471,-2.07922e-17,2.07922e-17,-0.166471,170.946,280.605)">
                <path d="M203,72L203,145L130,145L203,72Z" style="fill:rgb(123,174,255);"/>
            </g>
            <g transform="matrix(-0.166471,-2.07922e-17,2.07922e-17,-0.166471,183.098,280.605)">
                <path d="M203,72L203,145L130,145L203,72Z" style="fill:rgb(59,135,255);"/>
            </g>
            <g transform="matrix(-0.166471,-2.07922e-17,2.07922e-17,-0.166471,183.098,268.453)">
                <path d="M203,72L203,145L130,145L203,72Z" style="fill:rgb(151,191,255);"/>
            </g>
            <g transform="matrix(-0.166471,-2.07922e-17,2.07922e-17,-0.166471,183.098,256.3)">
                <path d="M203,72L203,145L130,145L203,72Z" style="fill:rgb(90,154,254);"/>
            </g>
            <g transform="matrix(-0.166471,-2.07922e-17,2.07922e-17,-0.166471,183.098,244.148)">
                <path d="M203,72L203,145L130,145L203,72Z" style="fill:rgb(27,116,255);"/>
            </g>
            <g transform="matrix(-0.166471,-2.07922e-17,2.07922e-17,-0.166471,183.098,231.995)">
                <path d="M203,72L203,145L130,145L203,72Z" style="fill:rgb(0,83,215);"/>
            </g>
            <g transform="matrix(-0.166471,-2.07922e-17,2.07922e-17,-0.166471,183.098,219.843)">
                <path d="M203,72L203,145L130,145L203,72Z" style="fill:rgb(0,47,122);"/>
            </g>
            <g transform="matrix(9.75782e-18,0.166471,-0.166471,9.75782e-18,222.023,174.035)">
                <path d="M203,72L203,145L130,145L203,72Z" style="fill:rgb(255,148,148);"/>
            </g>
            <g transform="matrix(1.0442e-17,0.166471,-0.166471,1.0442e-17,222.023,186.187)">
                <path d="M203,72L203,145L130,145L203,72Z" style="fill:rgb(255,100,100);"/>
            </g>
            <g transform="matrix(-2.11317e-17,-0.166471,0.166471,-2.11317e-17,198.081,253.804)">
                <path d="M203,72L203,145L130,145L203,72Z" style="fill:rgb(255,35,35);"/>
            </g>
            <g transform="matrix(-0.166471,5.36969e-17,-5.36969e-17,-0.166471,256.013,244.148)">
                <path d="M203,72L203,145L130,145L203,72Z" style="fill:rgb(27,116,255);"/>
            </g>
            <g transform="matrix(-0.166471,-1.59102e-17,1.59102e-17,-0.166471,256.013,231.995)">
                <path d="M203,72L203,145L130,145L203,72Z" style="fill:rgb(0,83,215);"/>
            </g>
            <g transform="matrix(-0.166471,-2.03868e-17,2.03868e-17,-0.166471,256.013,219.843)">
                <path d="M203,72L203,145L130,145L203,72Z" style="fill:rgb(0,47,122);"/>
            </g>
            <g transform="matrix(-0.166471,-2.03868e-17,2.03868e-17,-0.166471,268.165,207.691)">
                <path d="M203,72L203,145L130,145L203,72Z" style="fill:rgb(0,47,122);"/>
            </g>
            <g transform="matrix(-0.166471,-2.03868e-17,2.03868e-17,-0.166471,280.317,195.538)">
                <path d="M203,72L203,145L130,145L203,72Z" style="fill:rgb(0,83,215);"/>
            </g>
            <g transform="matrix(8.45416e-18,0.166471,-0.166471,8.45416e-18,294.967,161.911)">
                <path d="M203,72L203,145L130,145L203,72Z" style="fill:rgb(255,193,193);"/>
            </g>
            <g transform="matrix(7.9551e-18,0.166471,-0.166471,7.9551e-18,294.967,174.064)">
                <path d="M203,72L203,145L130,145L203,72Z" style="fill:rgb(255,148,148);"/>
            </g>
            <g transform="matrix(7.9551e-18,0.166471,-0.166471,7.9551e-18,294.967,186.216)">
                <path d="M203,72L203,145L130,145L203,72Z" style="fill:rgb(255,100,100);"/>
            </g>
            <g transform="matrix(3.75372e-17,0.166471,-0.166471,3.75372e-17,307.119,198.368)">
                <path d="M203,72L203,145L130,145L203,72Z" style="fill:rgb(255,60,60);"/>
            </g>
            <g transform="matrix(-0.166471,4.77306e-17,-4.77306e-17,-0.166471,328.927,231.995)">
                <path d="M203,72L203,145L130,145L203,72Z" style="fill:rgb(0,83,215);"/>
            </g>
            <g transform="matrix(-0.166471,4.77306e-17,-4.77306e-17,-0.166471,328.927,220.416)">
                <path d="M203,72L203,145L130,145L203,72Z" style="fill:rgb(0,47,122);"/>
            </g>
            <g transform="matrix(-0.166471,4.77306e-17,-4.77306e-17,-0.166471,341.079,208.264)">
                <path d="M203,72L203,145L130,145L203,72Z" style="fill:rgb(0,47,122);"/>
            </g>
            <g transform="matrix(-0.166471,4.77306e-17,-4.77306e-17,-0.166471,353.232,196.112)">
                <path d="M203,72L203,145L130,145L203,72Z" style="fill:rgb(0,83,215);"/>
            </g>
            <g transform="matrix(5.59343e-19,0.166471,-0.166471,5.59343e-19,355.729,150.332)">
                <path d="M203,72L203,145L130,145L203,72Z" style="fill:rgb(255,233,233);"/>
            </g>
            <g transform="matrix(5.59343e-19,0.166471,-0.166471,5.59343e-19,367.881,162.484)">
                <path d="M203,72L203,145L130,145L203,72Z" style="fill:rgb(255,193,193);"/>
            </g>
            <g transform="matrix(5.59343e-19,0.166471,-0.166471,5.59343e-19,367.881,174.637)">
                <path d="M203,72L203,145L130,145L203,72Z" style="fill:rgb(255,148,148);"/>
            </g>
            <g transform="matrix(5.59343e-19,0.166471,-0.166471,5.59343e-19,367.881,186.789)">
                <path d="M203,72L203,145L130,145L203,72Z" style="fill:rgb(255,100,100);"/>
            </g>
            <g transform="matrix(5.59343e-19,0.166471,-0.166471,5.59343e-19,367.881,198.942)">
                <path d="M203,72L203,145L130,145L203,72Z" style="fill:rgb(255,60,60);"/>
            </g>
            <g transform="matrix(5.59343e-19,0.166471,-0.166471,5.59343e-19,367.881,211.094)">
                <path d="M203,72L203,145L130,145L203,72Z" style="fill:rgb(200,0,0);"/>
            </g>
            <g transform="matrix(5.59343e-19,0.166471,-0.166471,5.59343e-19,367.881,223.246)">
                <path d="M203,72L203,145L130,145L203,72Z" style="fill:rgb(141,0,1);"/>
            </g>
            <g transform="matrix(5.59343e-19,0.166471,-0.166471,5.59343e-19,367.881,235.399)">
                <path d="M203,72L203,145L130,145L203,72Z" style="fill:rgb(255,148,148);"/>
            </g>
            <g transform="matrix(5.59343e-19,0.166471,-0.166471,5.59343e-19,355.729,235.399)">
                <path d="M203,72L203,145L130,145L203,72Z" style="fill:rgb(255,193,193);"/>
            </g>
            <g transform="matrix(5.59343e-19,0.166471,-0.166471,5.59343e-19,343.576,235.399)">
                <path d="M203,72L203,145L130,145L203,72Z" style="fill:rgb(255,233,233);"/>
            </g>
            <g transform="matrix(5.59343e-19,0.166471,-0.166471,5.59343e-19,380.034,235.399)">
                <path d="M203,72L203,145L130,145L203,72Z" style="fill:rgb(255,100,100);"/>
            </g>
            <g transform="matrix(5.59343e-19,0.166471,-0.166471,5.59343e-19,392.186,235.399)">
                <path d="M203,72L203,145L130,145L203,72Z" style="fill:rgb(255,60,60);"/>
            </g>
            <g transform="matrix(-0.166471,4.77306e-17,-4.77306e-17,-0.166471,328.927,244.148)">
                <path d="M203,72L203,145L130,145L203,72Z" style="fill:rgb(27,116,255);"/>
            </g>
            <g transform="matrix(1.01934e-17,0.166471,-0.166471,1.01934e-17,282.814,149.759)">
                <path d="M203,72L203,145L130,145L203,72Z" style="fill:rgb(255,233,233);"/>
            </g>
            <g transform="matrix(-0.166471,-2.07922e-17,2.07922e-17,-0.166471,195.251,207.691)">
                <path d="M203,72L203,145L130,145L203,72Z" style="fill:rgb(0,47,122);"/>
            </g>
            <g transform="matrix(-0.166471,-2.07922e-17,2.07922e-17,-0.166471,207.403,195.538)">
                <path d="M203,72L203,145L130,145L203,72Z" style="fill:rgb(0,83,215);"/>
            </g>
            <g transform="matrix(4.97194e-18,0.166471,-0.166471,4.97194e-18,209.9,149.759)">
                <path d="M203,72L203,145L130,145L203,72Z" style="fill:rgb(255,233,233);"/>
            </g>
            <g transform="matrix(4.97194e-18,0.166471,-0.166471,4.97194e-18,222.053,161.911)">
                <path d="M203,72L203,145L130,145L203,72Z" style="fill:rgb(255,193,193);"/>
            </g>
            <g transform="matrix(-0.166471,-2.07922e-17,2.07922e-17,-0.166471,195.251,280.605)">
                <path d="M203,72L203,145L130,145L203,72Z" style="fill:rgb(0,96,247);"/>
            </g>
            <g transform="matrix(-0.166471,-2.07922e-17,2.07922e-17,-0.166471,207.403,280.605)">
                <path d="M203,72L203,145L130,145L203,72Z" style="fill:rgb(0,66,170);"/>
            </g>
        </g>
    </g>
</svg>
